<?xml version="1.0" encoding="utf-8"?>
<!-- Generator: Adobe Illustrator 24.1.0, SVG Export Plug-In . SVG Version: 6.00 Build 0)  -->
<svg version="1.1" id="Layer_1" xmlns="http://www.w3.org/2000/svg" xmlns:xlink="http://www.w3.org/1999/xlink" x="0px" y="0px"
	 viewBox="0 0 935 768" style="enable-background:new 0 0 935 768;" xml:space="preserve">
<style type="text/css">
	.st0{fill:#F4B942;}
	.st1{fill:#4059AD;}
</style>
<path class="st0" d="M211.14,257.62c-0.21,0-0.38,0-0.59,0c-29.79,0-56.36,9.59-73.61,24.59c-12.86,11.2-20.57,25.29-20.57,40.71
	c0,36.05,42.16,65.3,94.18,65.3c34.39,0,64.45-12.8,80.89-31.87c7.77-9.05,12.48-19.45,13.18-30.64c0-0.16,0-11.62,0-30.21
	l-29.14-18.59C256.25,264.64,233.96,257.73,211.14,257.62L211.14,257.62z"/>
<path class="st0" d="M304.62,282.21v-16.61v29.89C304.62,291.43,304.62,286.98,304.62,282.21L304.62,282.21z"/>
<path class="st0" d="M533.32,685.55c34.39,0,64.5-12.8,80.89-31.88c7.77-9.05,12.48-19.45,13.18-30.64c0-0.11,0-7.02,0-18.64
	c0-3.43,0-7.34,0-11.57l-29.14-18.59c-19.23-12.27-41.52-19.23-64.34-19.29c-0.21,0-0.38,0-0.59,0c-29.79,0-56.36,9.64-73.61,24.59
	c-8.3,7.18-14.46,15.7-17.73,24.86c-1.82,5.09-2.79,10.34-2.79,15.8C439.2,656.25,481.36,685.55,533.32,685.55L533.32,685.55z"/>
<path class="st1" d="M918.02,33.54c9.21,0,16.71-7.5,16.71-16.77c0-9.21-7.5-16.77-16.71-16.77H722.96
	c-9.27,0-16.77,7.5-16.77,16.77c0,9.27,7.5,16.77,16.77,16.77H918.02L918.02,33.54z"/>
<path class="st1" d="M16.62,33.54h594.7c9.21,0,16.77-7.5,16.77-16.77c0-9.21-7.5-16.77-16.77-16.77H16.62
	C7.36,0-0.14,7.5-0.14,16.77C-0.14,26.09,7.36,33.54,16.62,33.54L16.62,33.54z"/>
<path class="st1" d="M16.62,768h901.39c9.21,0,16.71-7.5,16.71-16.71s-7.5-16.71-16.71-16.71H16.62c-9.27,0-16.77,7.5-16.77,16.71
	C-0.14,760.5,7.36,768,16.62,768L16.62,768z"/>
<path class="st1" d="M147.93,294.86c6.75-5.89,15.8-11.04,26.52-14.73c10.71-3.64,23.04-5.79,36.11-5.79c0.16,0,0.32,0,0.48,0l0,0
	c19.45,0.05,38.68,6,55.45,16.66l21.43,13.66c0,2.09,0,4.02,0,5.84c0,0,0,0,0,0.05c0,0,0,0,0,0.05c0,2.46,0,4.98,0,6.86
	c0,2.63,0,4.66,0,6c0,0.59,0,0.96,0,1.29c-0.21,3.54-1.02,6.91-2.52,10.34c-1.5,3.43-3.7,6.86-6.59,10.23l0,0
	c-3.05,3.59-6.91,7.02-11.52,10.12c-6.86,4.71-15.38,8.73-25.02,11.52c-9.64,2.79-20.36,4.39-31.71,4.39
	c-11.41,0-22.29-1.61-31.93-4.45c-7.29-2.14-13.87-4.98-19.66-8.25c-8.62-4.93-15.27-10.93-19.55-17.09
	c-2.14-3.11-3.7-6.21-4.77-9.32c-1.02-3.11-1.55-6.21-1.55-9.48c0-4.88,1.18-9.54,3.59-14.25
	C139.14,303.96,142.89,299.25,147.93,294.86L147.93,294.86z M321.39,104.36V85.18c3.37,0.43,6.16,1.29,9.64,1.61l0,0
	c15.38,1.34,27.05,5.36,36.32,10.45c9.27,5.14,16.18,11.41,21.43,17.79c6.59,8.04,10.45,16.13,12.43,21.38
	c2.41,6.21,8.14,10.07,14.36,10.55h-94.29v-42.59H321.39z M107,293.36c-0.11,0.16-0.11,0.38-0.21,0.54H16.62
	c-9.27,0-16.77,7.5-16.77,16.77c0,9.27,7.5,16.77,16.77,16.77h83.68c0.32,4.55,0.7,9.16,1.98,13.5c2.95,10.07,8.3,19.13,15.16,27
	c10.34,11.79,24.16,20.95,40.02,27.32c15.91,6.32,33.96,9.86,53.09,9.86c19.29,0,37.45-3.59,53.41-10.02
	c7.98-3.21,15.43-7.18,22.18-11.79c6.75-4.66,12.8-9.96,17.95-15.96c4.88-5.63,8.95-11.89,11.89-18.75
	c2.89-6.64,4.61-13.77,5.14-21.16h596.79c9.21,0,16.71-7.5,16.71-16.77c0-9.27-7.5-16.77-16.71-16.77H321.39c0-3.64,0-7.45,0-11.62
	v-42.21v-59.57h596.62c9.21,0,16.71-7.5,16.71-16.77c0-9.21-7.5-16.77-16.71-16.77H417.34c1.88-0.05,3.75-0.21,5.57-0.91
	c8.63-3.32,12.96-13.02,9.64-21.64c-2.95-7.71-8.36-19.07-17.84-30.64V93.7c-7.55-9.16-17.73-18.43-31.12-25.82
	c-13.39-7.39-29.89-12.75-49.61-14.46l0,0c-9.38-0.8-17.79-2.3-25.29-4.18c-4.98-1.23-10.29-0.11-14.36,3.05
	c-4.07,3.16-6.43,8.04-6.43,13.18v38.84v42.59H16.62c-9.27,0-16.77,7.5-16.77,16.77c0,9.27,7.5,16.77,16.77,16.77h271.29V240v25.02
	l-3.38-2.2c-21.8-13.87-47.09-21.8-73.29-21.91l0,0c-0.21,0-0.38,0-0.64,0c-16.71,0-32.57,2.68-46.93,7.55
	c-14.3,4.93-27.16,12-37.66,21.11l0,0C118.14,276.38,111.61,284.3,107,293.36L107,293.36z"/>
<polygon class="st1" points="304.14,367.29 304.14,367.29 304.14,367.29 "/>
<path class="st1" d="M608.16,632.46c-1.5,3.43-3.7,6.91-6.59,10.29l0,0c-3.05,3.54-6.91,7.02-11.52,10.12
	c-6.86,4.71-15.37,8.73-25.02,11.52c-9.64,2.84-20.36,4.39-31.71,4.39c-11.41,0-22.23-1.61-31.93-4.45
	c-7.29-2.14-13.87-4.98-19.66-8.25c-8.62-4.98-15.27-10.98-19.55-17.09c-2.14-3.11-3.7-6.16-4.71-9.27
	c-1.07-3.16-1.55-6.27-1.55-9.48c0-3.48,0.59-6.8,1.77-10.12v-0.05c1.13-3.05,2.68-6.11,4.88-9.11c2.14-3,4.88-5.95,8.14-8.79
	c6.75-5.89,15.8-11.09,26.52-14.73c10.71-3.64,23.04-5.73,36.11-5.73c0.16,0,0.32,0,0.48,0c19.5,0.05,38.68,5.95,55.45,16.66
	l21.43,13.66c0,0.8,0,1.71,0,2.41c0,5.84,0,10.45,0,13.61c0,1.55,0,2.79,0,3.64c0,0.16,0,0.27,0,0.43
	C610.46,625.61,609.61,628.98,608.16,632.46L608.16,632.46z M644.16,401.68V382.5c3.32,0.43,6.11,1.29,9.64,1.61h0.05
	c15.38,1.34,27.05,5.3,36.37,10.39c9.27,5.14,16.18,11.41,21.43,17.79c6.59,8.04,10.45,16.12,12.48,21.38
	c1.18,3,3.27,5.25,5.68,7.12h-85.61v-39.11H644.16z M610.68,562.29l-3.43-2.2c-21.75-13.88-47.09-21.8-73.29-21.96h-0.11
	c-0.16,0-0.38,0-0.59,0c-16.66,0-32.57,2.68-46.93,7.55c-14.36,4.93-27.16,12-37.71,21.16c-5.04,4.34-9.54,9.21-13.39,14.57
	c-1.39,1.93-2.09,4.18-3.27,6.21H16.62c-9.27,0-16.77,7.5-16.77,16.71c0,9.27,7.5,16.77,16.77,16.77h405.96
	c0.11,5.79,0.86,11.52,2.46,16.93c2.95,10.07,8.3,19.18,15.16,27c10.34,11.79,24.16,20.95,40.07,27.32
	c15.91,6.38,33.91,9.86,53.04,9.86c19.29,0,37.45-3.59,53.41-10.02c7.98-3.16,15.43-7.12,22.18-11.79
	c6.75-4.61,12.8-9.91,17.95-15.96c4.88-5.68,8.95-11.95,11.89-18.75c2.84-6.54,4.55-13.66,5.09-20.95h0.11
	c0.05-0.48,0.05-0.64,0.11-0.8c0-0.32,0-0.43,0-0.54c0-0.16,0-0.27,0-0.32c0-0.21,0-0.43,0-0.75c0-0.21,0-0.96,0-1.29h273.86
	c9.21,0,16.71-7.5,16.71-16.77c0-9.21-7.5-16.71-16.71-16.71h-273.8c0-2.68,0-5.25,0-8.14v-42.27v-63h273.8
	c9.21,0,16.71-7.5,16.71-16.77c0-9.21-7.5-16.71-16.71-16.71H749.59c5.73-4.39,8.41-12,5.68-19.07c-3-7.77-8.36-19.07-17.84-30.64
	l0,0c-7.55-9.16-17.73-18.48-31.12-25.82c-13.39-7.39-29.95-12.8-49.61-14.46l0,0c-9.38-0.8-17.79-2.36-25.29-4.18
	c-4.98-1.23-10.29-0.11-14.36,3.05c-4.07,3.16-6.43,8.04-6.43,13.18v38.89v39.11h-594c-9.27,0-16.77,7.5-16.77,16.71
	c0,9.27,7.5,16.77,16.77,16.77h594.05v63V562.29L610.68,562.29z"/>
<polygon class="st1" points="626.91,664.55 626.91,664.55 626.91,664.55 "/>
</svg>
