<?xml version="1.0" encoding="utf-8"?>
<!-- Generator: Adobe Illustrator 24.1.0, SVG Export Plug-In . SVG Version: 6.00 Build 0)  -->
<svg version="1.1" id="Layer_1" xmlns="http://www.w3.org/2000/svg" xmlns:xlink="http://www.w3.org/1999/xlink" x="0px" y="0px"
	 viewBox="0 0 300 300" style="enable-background:new 0 0 300 300;" xml:space="preserve">
<style type="text/css">
	.st0{fill:#F4B942;}
	.st1{fill:#97D8C4;}
</style>
<path class="st0" d="M239.73,81.3c0-1.8-1.46-3.27-3.27-3.27H63.89c-1.8,0-3.27,1.46-3.27,3.27c0,1.8,1.46,3.27,3.27,3.27h172.58
	C238.27,84.57,239.73,83.11,239.73,81.3L239.73,81.3z"/>
<path class="st0" d="M63.89,112.08h41.38v-6.53H63.89c-1.8,0-3.27,1.46-3.27,3.26C60.62,110.62,62.08,112.08,63.89,112.08
	L63.89,112.08z"/>
<path class="st0" d="M236.46,105.55h-93.53c0.49,2.22,0.6,4.47,0.53,6.53h93c1.8,0,3.27-1.46,3.27-3.27
	C239.73,107.01,238.27,105.55,236.46,105.55L236.46,105.55z"/>
<path class="st0" d="M63.89,139.6h20.44c1.3-2.57,3.37-4.81,6.02-6.53H63.89c-1.8,0-3.27,1.46-3.27,3.26
	C60.62,138.14,62.08,139.6,63.89,139.6L63.89,139.6z"/>
<path class="st0" d="M236.46,133.06H125c0,2.67,0,4.82,0,6.53h58.29h11.77h41.39c1.8,0,3.27-1.46,3.27-3.27
	C239.73,134.53,238.27,133.06,236.46,133.06L236.46,133.06z"/>
<path class="st1" d="M93.84,160.58H63.89c-1.8,0-3.27,1.46-3.27,3.27c0,1.8,1.46,3.27,3.27,3.27h115.43v-6.54h-65.38H93.84
	L93.84,160.58z"/>
<path class="st1" d="M236.46,160.58h-19.12c0.28,2.31,0.22,4.58,0.03,6.54h19.09c1.8,0,3.27-1.46,3.27-3.27
	C239.73,162.04,238.27,160.58,236.46,160.58L236.46,160.58z"/>
<path class="st1" d="M63.89,194.62h93.62c0.77-2.45,2.22-4.67,4.18-6.53h-97.8c-1.8,0-3.27,1.46-3.27,3.27
	C60.62,193.16,62.08,194.62,63.89,194.62L63.89,194.62z"/>
<path class="st1" d="M236.46,188.1h-37.4c0,2.82,0,4.93,0,6.53h37.4c1.8,0,3.27-1.46,3.27-3.26
	C239.73,189.55,238.27,188.1,236.46,188.1L236.46,188.1z"/>
<path class="st1" d="M236.46,215.61H63.89c-1.8,0-3.27,1.46-3.27,3.27c0,1.8,1.46,3.27,3.27,3.27h172.58c1.8,0,3.27-1.46,3.27-3.27
	C239.73,217.07,238.27,215.61,236.46,215.61L236.46,215.61z"/>
<path class="st0" d="M133.5,112.08c1.24,1.52,1.96,3.02,2.35,4.02c0.12,0.31,0.58,0.27,0.64-0.06c0.17-0.95,0.37-2.37,0.44-3.96
	c0.09-2.07-0.04-4.45-0.75-6.53c-1.04-3.04-3.32-5.45-7.96-5.34c-3.94,0.09-7.17-0.94-9.75-2.38v-2.27c0-0.61,0-0.93,0-0.93
	c0-1.84-1.49-3.33-3.34-3.33c-1.84,0-3.33,1.49-3.33,3.33v10.93v6.53v20.98v4.33c-2.27-1.02-4.98-1.6-7.88-1.6
	c-4.61,0-8.72,1.49-11.39,3.8c-1.99,1.73-3.17,3.91-3.17,6.3c0,5.58,6.52,10.11,14.56,10.11c5.32,0,9.97-1.98,12.52-4.94
	c1.2-1.4,1.93-3.01,2.03-4.74c0-0.03,0-2.67,0-6.73v-6.53v-20.98v-6.01c1.29,0.32,2.73,0.57,4.31,0.71
	C128.21,107.25,131.52,109.68,133.5,112.08L133.5,112.08z"/>
<path class="st1" d="M192.52,147.52c0-1.84-1.49-3.34-3.34-3.34c-1.84,0-3.33,1.5-3.33,3.34v13.06v6.54v20.98v2.19
	c-2.27-1.02-4.98-1.6-7.88-1.6c-5.9,0-10.99,2.44-13.28,5.94c-0.83,1.28-1.29,2.68-1.29,4.17c0,5.58,6.52,10.1,14.56,10.1
	c5.32,0,9.97-1.98,12.52-4.93c1.2-1.4,1.93-3.01,2.04-4.73c0-0.03,0-1.77,0-4.6c0-1.79,0-4.02,0-6.53c0-6.12,0-13.89,0-20.98v-6.54
	v-1.61c1.29,0.31,2.73,0.57,4.32,0.71c1.63,0.14,3.07,0.46,4.34,0.9c4.24,1.48,6.59,4.33,7.83,6.54c0.4,0.72,0.69,1.37,0.89,1.89
	c0.12,0.32,0.58,0.28,0.63-0.06c0.09-0.5,0.19-1.12,0.27-1.83c0.21-1.83,0.33-4.24-0.05-6.54c-0.66-3.96-2.8-7.61-8.49-7.47
	c-3.93,0.09-7.17-0.94-9.75-2.38v-2.27C192.52,147.84,192.52,147.52,192.52,147.52L192.52,147.52z"/>
</svg>
