<?xml version="1.0" encoding="utf-8"?>
<!-- Generator: Adobe Illustrator 24.1.0, SVG Export Plug-In . SVG Version: 6.00 Build 0)  -->
<svg version="1.1" id="Layer_1" xmlns="http://www.w3.org/2000/svg" xmlns:xlink="http://www.w3.org/1999/xlink" x="0px" y="0px"
	 viewBox="0 0 300 300" style="enable-background:new 0 0 300 300;" xml:space="preserve">
<style type="text/css">
	.st0{fill:#6B9AC4;}
</style>
<path class="st0" d="M234.3,84.66c1.72,0,3.12-1.4,3.12-3.13c0-1.72-1.4-3.13-3.12-3.13h-36.41c-1.72,0-3.12,1.4-3.12,3.13
	c0,1.73,1.4,3.13,3.12,3.13H234.3L234.3,84.66z"/>
<path class="st0" d="M66.05,84.66h111.01c1.73,0,3.13-1.4,3.13-3.13c0-1.72-1.4-3.13-3.13-3.13H66.05c-1.72,0-3.12,1.4-3.12,3.13
	C62.93,83.27,64.32,84.66,66.05,84.66L66.05,84.66z"/>
<path class="st0" d="M66.05,221.76H234.3c1.72,0,3.12-1.4,3.12-3.12c0-1.72-1.4-3.13-3.12-3.13H66.05c-1.72,0-3.12,1.41-3.12,3.13
	C62.93,220.36,64.32,221.76,66.05,221.76L66.05,221.76z"/>
<polygon class="st0" points="86.46,128.72 86.46,128.72 86.46,128.72 86.46,128.72 "/>
<polygon class="st0" points="119.72,146.96 119.72,146.96 119.72,146.96 119.72,146.96 "/>
<path class="st0" d="M90.56,133.44L90.56,133.44c1.26-1.1,2.96-2.06,4.95-2.75c2-0.68,4.3-1.08,6.74-1.08c0.02,0,0.06,0,0.09,0l0,0
	c3.63,0.01,7.23,1.12,10.35,3.11l4,2.55c0,0.38,0,0.74,0,1.07c0,0.01,0,0.02,0,0.03c0,0.01,0,0.02,0,0.03c0,0.48,0,0.9,0,1.26
	c0,0.49,0,0.87,0,1.12c0,0.11,0,0.2,0,0.26c-0.05,0.65-0.2,1.28-0.47,1.91c-0.28,0.64-0.69,1.28-1.23,1.91l0,0
	c-0.57,0.67-1.29,1.31-2.15,1.89c-1.28,0.88-2.87,1.63-4.66,2.15c-1.8,0.52-3.8,0.82-5.92,0.82c-2.14,0-4.15-0.3-5.96-0.83
	c-1.36-0.4-2.6-0.93-3.67-1.54c-1.61-0.92-2.85-2.04-3.65-3.19c-0.4-0.58-0.69-1.16-0.89-1.74c-0.18-0.58-0.28-1.16-0.28-1.77
	c0-0.46,0.06-0.92,0.17-1.37v0c0.11-0.43,0.27-0.86,0.49-1.29C88.93,135.14,89.62,134.26,90.56,133.44L90.56,133.44z M122.94,97.88
	V94.4c0.58,0.08,1.18,0.15,1.8,0.2h0.01c2.86,0.25,5.05,1,6.78,1.95c1.73,0.96,3.02,2.13,4,3.32c1.23,1.5,1.96,3.01,2.33,3.99
	c0.42,1.1,1.39,1.82,2.48,1.98h-17.4V97.88L122.94,97.88z M82.91,133.16c-0.02,0.03-0.03,0.07-0.05,0.1H66.05
	c-1.72,0-3.12,1.4-3.12,3.13c0,1.73,1.4,3.13,3.12,3.13h15.53c0.06,0.86,0.22,1.7,0.45,2.52c0.56,1.88,1.55,3.57,2.84,5.04
	c1.93,2.2,4.51,3.91,7.48,5.1c2.96,1.18,6.34,1.84,9.91,1.84c3.6,0,6.99-0.67,9.97-1.87c1.49-0.6,2.88-1.34,4.14-2.2
	c1.27-0.87,2.4-1.86,3.36-2.98c0.92-1.06,1.66-2.22,2.22-3.5c0.54-1.24,0.88-2.57,0.98-3.95H234.3c1.72,0,3.12-1.4,3.12-3.13
	c0-1.73-1.4-3.13-3.12-3.13H122.94c0-0.68,0-1.4,0-2.17v-7.88v-11.12H234.3c1.72,0,3.12-1.4,3.12-3.13c0-1.72-1.4-3.12-3.12-3.12
	h-93.12c0.24-0.03,0.47-0.09,0.7-0.18c1.62-0.62,2.42-2.43,1.81-4.04c-0.56-1.44-1.57-3.56-3.34-5.72V95.9
	c-1.41-1.71-3.31-3.44-5.81-4.82c-2.5-1.38-5.58-2.38-9.26-2.7l0,0c-1.75-0.15-3.32-0.43-4.73-0.78c-0.92-0.23-1.92-0.02-2.67,0.57
	c-0.76,0.59-1.2,1.5-1.2,2.46v7.25v7.95H66.05c-1.72,0-3.12,1.4-3.12,3.12c0,1.73,1.4,3.13,3.12,3.13h50.64v11.12v4.67l-0.64-0.41
	c-4.06-2.59-8.79-4.07-13.68-4.09l0,0c-0.04,0-0.07,0-0.12,0c-3.12,0-6.09,0.5-8.77,1.41c-2.67,0.92-5.06,2.24-7.03,3.94
	C85,129.99,83.78,131.47,82.91,133.16L82.91,133.16z"/>
<path class="st0" d="M176.46,196.46c-0.27,0.64-0.68,1.28-1.22,1.92l0,0c-0.57,0.67-1.3,1.31-2.16,1.89
	c-1.28,0.88-2.86,1.63-4.66,2.15c-1.8,0.53-3.8,0.82-5.92,0.82c-2.13,0-4.15-0.3-5.96-0.83c-1.36-0.4-2.59-0.93-3.66-1.54
	c-1.62-0.93-2.86-2.05-3.65-3.19c-0.4-0.58-0.69-1.15-0.88-1.74c-0.19-0.58-0.28-1.15-0.29-1.76c0.01-0.64,0.12-1.27,0.34-1.89
	v-0.01c0.21-0.57,0.5-1.14,0.91-1.7c0.4-0.56,0.91-1.11,1.52-1.64c1.26-1.1,2.96-2.07,4.94-2.75c2.01-0.68,4.3-1.08,6.74-1.08
	c0.03,0,0.07,0,0.09,0c3.64,0.02,7.23,1.12,10.35,3.11l4,2.55c0,0.15,0,0.3,0,0.45l0,0c0,1.09,0,1.95,0,2.54c0,0.29,0,0.52,0,0.68
	c0,0.04,0,0.08,0,0.11C176.89,195.19,176.74,195.82,176.46,196.46L176.46,196.46z M183.19,153.38v-3.48
	c0.59,0.08,1.18,0.15,1.81,0.2v0c2.87,0.25,5.05,0.99,6.79,1.95c1.72,0.95,3.01,2.13,4,3.32c1.22,1.49,1.95,3.01,2.32,3.98
	c0.21,0.55,0.55,0.99,0.97,1.33h-15.89V153.38L183.19,153.38z M176.94,183.36l-0.63-0.41c-4.06-2.59-8.79-4.07-13.68-4.1h-0.02
	c-0.03,0-0.07,0-0.11,0c-3.11,0.01-6.09,0.5-8.76,1.41c-2.68,0.92-5.07,2.24-7.03,3.95c-0.94,0.81-1.78,1.72-2.5,2.72
	c-0.27,0.37-0.52,0.76-0.75,1.16H66.05c-1.72,0-3.12,1.4-3.12,3.12c0,1.73,1.4,3.13,3.12,3.13h75.76c0.02,1.08,0.18,2.15,0.48,3.16
	c0.55,1.88,1.55,3.58,2.83,5.04c1.93,2.2,4.51,3.91,7.48,5.1c2.96,1.18,6.33,1.84,9.9,1.84c3.6,0,6.99-0.67,9.97-1.86
	c1.49-0.6,2.88-1.34,4.15-2.2c1.26-0.86,2.39-1.85,3.35-2.98l0,0c0.91-1.06,1.66-2.22,2.22-3.5c0.53-1.23,0.87-2.55,0.97-3.93
	c0.01-0.07,0.01-0.11,0.01-0.14l0,0l0,0c0,0,0,0,0-0.01c0.01-0.05,0.01-0.07,0.01-0.09c0-0.03,0-0.05,0-0.06c0-0.05,0-0.09,0-0.15
	c0-0.06,0-0.14,0-0.24h51.12c1.72,0,3.12-1.4,3.12-3.13c0-1.72-1.4-3.12-3.12-3.12h-51.12c0-0.49,0-0.99,0-1.52v-7.89v-11.76h51.12
	c1.72,0,3.12-1.4,3.12-3.13c0-1.72-1.4-3.12-3.12-3.12h-31.34c1.04-0.83,1.47-2.26,0.97-3.57l0,0c-0.55-1.44-1.56-3.55-3.33-5.71
	l0,0c-1.41-1.71-3.31-3.45-5.81-4.82c-2.5-1.38-5.59-2.39-9.27-2.7h0.01c-1.75-0.15-3.32-0.44-4.73-0.78
	c-0.93-0.23-1.92-0.02-2.68,0.57c-0.75,0.59-1.2,1.5-1.2,2.46v7.26v7.3H66.05c-1.72,0-3.12,1.4-3.12,3.12c0,1.73,1.4,3.13,3.12,3.13
	h110.89v11.76V183.36L176.94,183.36z"/>
</svg>
