<?xml version="1.0" encoding="utf-8"?>
<!-- Generator: Adobe Illustrator 24.1.0, SVG Export Plug-In . SVG Version: 6.00 Build 0)  -->
<svg version="1.1" id="Layer_1" xmlns="http://www.w3.org/2000/svg" xmlns:xlink="http://www.w3.org/1999/xlink" x="0px" y="0px"
	 viewBox="0 0 300 300" style="enable-background:new 0 0 300 300;" xml:space="preserve">
<style type="text/css">
	.st0{fill:#F4B942;}
	.st1{fill:#4059AD;}
</style>
<path class="st0" d="M102.36,126.49c-0.04,0-0.07,0-0.11,0c-5.56,0-10.52,1.79-13.74,4.59c-2.4,2.09-3.84,4.72-3.84,7.6
	c0,6.73,7.87,12.19,17.58,12.19c6.42,0,12.03-2.39,15.1-5.95c1.45-1.69,2.33-3.63,2.46-5.72c0-0.03,0-2.17,0-5.64l-5.44-3.47
	C110.78,127.8,106.62,126.51,102.36,126.49L102.36,126.49z"/>
<path class="st0" d="M119.81,131.08v-3.1v5.58C119.81,132.8,119.81,131.97,119.81,131.08L119.81,131.08z"/>
<path class="st0" d="M162.5,206.37c6.42,0,12.04-2.39,15.1-5.95c1.45-1.69,2.33-3.63,2.46-5.72c0-0.02,0-1.31,0-3.48
	c0-0.64,0-1.37,0-2.16l-5.44-3.47c-3.59-2.29-7.75-3.59-12.01-3.6c-0.04,0-0.07,0-0.11,0c-5.56,0-10.52,1.8-13.74,4.59
	c-1.55,1.34-2.7,2.93-3.31,4.64c-0.34,0.95-0.52,1.93-0.52,2.95C144.93,200.9,152.8,206.37,162.5,206.37L162.5,206.37z"/>
<path class="st1" d="M234.31,84.66c1.72,0,3.12-1.4,3.12-3.13c0-1.72-1.4-3.13-3.12-3.13H197.9c-1.73,0-3.13,1.4-3.13,3.13
	c0,1.73,1.4,3.13,3.13,3.13H234.31L234.31,84.66z"/>
<path class="st1" d="M66.05,84.66h111.01c1.72,0,3.13-1.4,3.13-3.13c0-1.72-1.4-3.13-3.13-3.13H66.05c-1.73,0-3.13,1.4-3.13,3.13
	C62.92,83.27,64.32,84.66,66.05,84.66L66.05,84.66z"/>
<path class="st1" d="M66.05,221.76h168.26c1.72,0,3.12-1.4,3.12-3.12c0-1.72-1.4-3.12-3.12-3.12H66.05c-1.73,0-3.13,1.4-3.13,3.12
	C62.92,220.36,64.32,221.76,66.05,221.76L66.05,221.76z"/>
<path class="st1" d="M90.56,133.44c1.26-1.1,2.95-2.06,4.95-2.75c2-0.68,4.3-1.08,6.74-1.08c0.03,0,0.06,0,0.09,0l0,0
	c3.63,0.01,7.22,1.12,10.35,3.11l4,2.55c0,0.39,0,0.75,0,1.09c0,0,0,0,0,0.01c0,0,0,0,0,0.01c0,0.46,0,0.93,0,1.28
	c0,0.49,0,0.87,0,1.12c0,0.11,0,0.18,0,0.24c-0.04,0.66-0.19,1.29-0.47,1.93c-0.28,0.64-0.69,1.28-1.23,1.91h0
	c-0.57,0.67-1.29,1.31-2.15,1.89c-1.28,0.88-2.87,1.63-4.67,2.15c-1.8,0.52-3.8,0.82-5.92,0.82c-2.13,0-4.16-0.3-5.96-0.83
	c-1.36-0.4-2.59-0.93-3.67-1.54c-1.61-0.92-2.85-2.04-3.65-3.19c-0.4-0.58-0.69-1.16-0.89-1.74c-0.19-0.58-0.29-1.16-0.29-1.77
	c0-0.91,0.22-1.78,0.67-2.66C88.92,135.14,89.62,134.26,90.56,133.44L90.56,133.44z M122.94,97.88v-3.58
	c0.63,0.08,1.15,0.24,1.8,0.3h0c2.87,0.25,5.05,1,6.78,1.95c1.73,0.96,3.02,2.13,4,3.32c1.23,1.5,1.95,3.01,2.32,3.99
	c0.45,1.16,1.52,1.88,2.68,1.97h-17.6V97.88L122.94,97.88z M82.92,133.16c-0.02,0.03-0.02,0.07-0.04,0.1H66.05
	c-1.73,0-3.13,1.4-3.13,3.13c0,1.73,1.4,3.13,3.13,3.13h15.62c0.06,0.85,0.13,1.71,0.37,2.52c0.55,1.88,1.55,3.57,2.83,5.04
	c1.93,2.2,4.51,3.91,7.47,5.1c2.97,1.18,6.34,1.84,9.91,1.84c3.6,0,6.99-0.67,9.97-1.87c1.49-0.6,2.88-1.34,4.14-2.2
	c1.26-0.87,2.39-1.86,3.35-2.98c0.91-1.05,1.67-2.22,2.22-3.5c0.54-1.24,0.86-2.57,0.96-3.95h111.4c1.72,0,3.12-1.4,3.12-3.13
	c0-1.73-1.4-3.13-3.12-3.13H122.94c0-0.68,0-1.39,0-2.17v-7.88v-11.12h111.37c1.72,0,3.12-1.4,3.12-3.13c0-1.72-1.4-3.13-3.12-3.13
	h-93.46c0.35-0.01,0.7-0.04,1.04-0.17c1.61-0.62,2.42-2.43,1.8-4.04c-0.55-1.44-1.56-3.56-3.33-5.72l0-0.01
	c-1.41-1.71-3.31-3.44-5.81-4.82c-2.5-1.38-5.58-2.38-9.26-2.7l0,0c-1.75-0.15-3.32-0.43-4.72-0.78c-0.93-0.23-1.92-0.02-2.68,0.57
	c-0.76,0.59-1.2,1.5-1.2,2.46v7.25v7.95H66.05c-1.73,0-3.13,1.4-3.13,3.13c0,1.73,1.4,3.13,3.13,3.13h50.64v11.12v4.67l-0.63-0.41
	c-4.07-2.59-8.79-4.07-13.68-4.09l0,0c-0.04,0-0.07,0-0.12,0c-3.12,0-6.08,0.5-8.76,1.41c-2.67,0.92-5.07,2.24-7.03,3.94l0,0
	C85,129.99,83.78,131.47,82.92,133.16L82.92,133.16z"/>
<polygon class="st1" points="119.72,146.96 119.72,146.96 119.72,146.96 119.72,146.96 "/>
<path class="st1" d="M176.47,196.46c-0.28,0.64-0.69,1.29-1.23,1.92h0c-0.57,0.66-1.29,1.31-2.15,1.89
	c-1.28,0.88-2.87,1.63-4.67,2.15c-1.8,0.53-3.8,0.82-5.92,0.82c-2.13,0-4.15-0.3-5.96-0.83c-1.36-0.4-2.59-0.93-3.67-1.54
	c-1.61-0.93-2.85-2.05-3.65-3.19c-0.4-0.58-0.69-1.15-0.88-1.73c-0.2-0.59-0.29-1.17-0.29-1.77c0-0.65,0.11-1.27,0.33-1.89v-0.01
	c0.21-0.57,0.5-1.14,0.91-1.7c0.4-0.56,0.91-1.11,1.52-1.64c1.26-1.1,2.95-2.07,4.95-2.75c2-0.68,4.3-1.07,6.74-1.07
	c0.03,0,0.06,0,0.09,0c3.64,0.01,7.22,1.11,10.35,3.11l4,2.55c0,0.15,0,0.32,0,0.45c0,1.09,0,1.95,0,2.54c0,0.29,0,0.52,0,0.68
	c0,0.03,0,0.05,0,0.08C176.9,195.18,176.74,195.81,176.47,196.46L176.47,196.46z M183.19,153.38v-3.58c0.62,0.08,1.14,0.24,1.8,0.3
	l0.01,0c2.87,0.25,5.05,0.99,6.79,1.94c1.73,0.96,3.02,2.13,4,3.32c1.23,1.5,1.95,3.01,2.33,3.99c0.22,0.56,0.61,0.98,1.06,1.33
	h-15.98V153.38L183.19,153.38z M176.94,183.36l-0.64-0.41c-4.06-2.59-8.79-4.07-13.68-4.1h-0.02c-0.03,0-0.07,0-0.11,0
	c-3.11,0-6.08,0.5-8.76,1.41c-2.68,0.92-5.07,2.24-7.04,3.95c-0.94,0.81-1.78,1.72-2.5,2.72c-0.26,0.36-0.39,0.78-0.61,1.16H66.05
	c-1.73,0-3.13,1.4-3.13,3.12c0,1.73,1.4,3.13,3.13,3.13h75.78c0.02,1.08,0.16,2.15,0.46,3.16c0.55,1.88,1.55,3.58,2.83,5.04
	c1.93,2.2,4.51,3.91,7.48,5.1c2.97,1.19,6.33,1.84,9.9,1.84c3.6,0,6.99-0.67,9.97-1.87c1.49-0.59,2.88-1.33,4.14-2.2
	c1.26-0.86,2.39-1.85,3.35-2.98c0.91-1.06,1.67-2.23,2.22-3.5c0.53-1.22,0.85-2.55,0.95-3.91h0.02c0.01-0.09,0.01-0.12,0.02-0.15
	c0-0.06,0-0.08,0-0.1c0-0.03,0-0.05,0-0.06c0-0.04,0-0.08,0-0.14c0-0.04,0-0.18,0-0.24h51.12c1.72,0,3.12-1.4,3.12-3.13
	c0-1.72-1.4-3.12-3.12-3.12h-51.11c0-0.5,0-0.98,0-1.52v-7.89v-11.76h51.11c1.72,0,3.12-1.4,3.12-3.13c0-1.72-1.4-3.12-3.12-3.12
	h-31.42c1.07-0.82,1.57-2.24,1.06-3.56c-0.56-1.45-1.56-3.56-3.33-5.72l0,0c-1.41-1.71-3.31-3.45-5.81-4.82
	c-2.5-1.38-5.59-2.39-9.26-2.7h0c-1.75-0.15-3.32-0.44-4.72-0.78c-0.93-0.23-1.92-0.02-2.68,0.57c-0.76,0.59-1.2,1.5-1.2,2.46v7.26
	v7.3H66.05c-1.73,0-3.13,1.4-3.13,3.12c0,1.73,1.4,3.13,3.13,3.13h110.89v11.76V183.36L176.94,183.36z"/>
<polygon class="st1" points="179.97,202.45 179.97,202.45 179.97,202.45 179.97,202.45 "/>
</svg>
