<?xml version="1.0" encoding="utf-8"?>
<!-- Generator: Adobe Illustrator 24.1.0, SVG Export Plug-In . SVG Version: 6.00 Build 0)  -->
<svg version="1.1" id="Layer_1" xmlns="http://www.w3.org/2000/svg" xmlns:xlink="http://www.w3.org/1999/xlink" x="0px" y="0px"
	 viewBox="0 0 1366 768" style="enable-background:new 0 0 1366 768;" xml:space="preserve">
<style type="text/css">
	.st0{fill:#97D8C4;}
	.st1{fill:#6B9AC4;}
</style>
<path class="st0" d="M186.74,439.69v285.77c0,3.47,2.79,6.26,6.26,6.26h93.52c3.4,0,6.26-2.79,6.26-6.26V416.44
	c0-9.28-7.55-16.91-16.91-16.91h-11.55v89.29c0,12.98-10.64,23.55-23.55,23.55h-1.96c-12.98,0-23.55-10.64-23.55-23.55v-87.56
	C198.66,406.25,186.74,421.5,186.74,439.69L186.74,439.69z"/>
<path class="st0" d="M353.47,399.46c-6.42,0-11.62,5.28-11.62,11.62V720.1c0,6.42,5.21,11.62,11.62,11.62h110.28
	c6.42,0,11.62-5.21,11.62-11.62V411.08c0-6.34-5.21-11.62-11.62-11.62h-30.57v89.29c0,12.98-10.57,23.55-23.55,23.55h-2.04
	c-12.98,0-23.55-10.64-23.55-23.55v-89.29H353.47L353.47,399.46z"/>
<path class="st0" d="M535.98,399.46c-6.42,0-11.62,5.28-11.62,11.62V720.1c0,6.42,5.21,11.62,11.62,11.62h110.28
	c6.42,0,11.62-5.21,11.62-11.62V411.08c0-6.34-5.21-11.62-11.62-11.62h-30.57v89.29c0,12.98-10.64,23.55-23.55,23.55h-1.96
	c-12.91,0-23.55-10.64-23.55-23.55v-89.29H535.98L535.98,399.46z"/>
<path class="st0" d="M718.57,399.46c-6.42,0-11.62,5.28-11.62,11.62V720.1c0,6.42,5.21,11.62,11.62,11.62h110.28
	c6.42,0,11.62-5.21,11.62-11.62V411.08c0-6.34-5.21-11.62-11.62-11.62h-30.57v89.29c0,12.98-10.64,23.55-23.55,23.55h-1.96
	c-12.91,0-23.55-10.64-23.55-23.55v-89.29H718.57L718.57,399.46z"/>
<path class="st0" d="M901.16,399.46c-6.42,0-11.62,5.28-11.62,11.62V720.1c0,6.42,5.21,11.62,11.62,11.62h110.2
	c6.42,0,11.62-5.21,11.62-11.62V411.08c0-6.34-5.21-11.62-11.62-11.62h-30.57v89.29c0,12.98-10.57,23.55-23.55,23.55h-2.04
	c-12.98,0-23.55-10.64-23.55-23.55v-89.29H901.16L901.16,399.46z"/>
<path class="st0" d="M1072.12,429.72v289.84c0,6.72,5.43,12.23,12.15,12.23h81.67c6.72,0,12.23-5.51,12.23-12.23V445.57
	c0-19.17-11.77-35.63-28.46-42.5v85.75c0,12.98-10.64,23.55-23.55,23.55h-1.96c-12.91,0-23.55-10.64-23.55-23.55v-89.29
	C1084.73,400.44,1072.12,413.57,1072.12,429.72L1072.12,429.72z"/>
<path class="st1" d="M1138.54,242.46c0,6.79-5.59,12.3-12.38,12.3h-24.38c-6.79,0-12.3-5.59-12.3-12.3v-98.12
	c0-6.87,5.59-12.38,12.3-12.38h24.38c6.87,0,12.38,5.59,12.38,12.38V242.46L1138.54,242.46z M1058.61,242.46
	c0,6.79-5.59,12.3-12.3,12.3h-24.46c-6.79,0-12.3-5.59-12.3-12.3v-98.12c0-6.87,5.59-12.38,12.3-12.38h24.46
	c6.79,0,12.3,5.59,12.3,12.38V242.46L1058.61,242.46z M978.6,242.46c0,6.79-5.59,12.3-12.38,12.3h-24.38
	c-6.79,0-12.3-5.59-12.3-12.3v-98.12c0-6.87,5.59-12.38,12.3-12.38h24.38c6.87,0,12.38,5.59,12.38,12.38V242.46L978.6,242.46z
	 M898.67,242.46c0,6.79-5.59,12.3-12.38,12.3h-24.46c-6.79,0-12.3-5.59-12.3-12.3v-98.12c0-6.87,5.59-12.38,12.3-12.38h24.46
	c6.79,0,12.38,5.59,12.38,12.38V242.46L898.67,242.46z M607.84,156.49h-38.57c-7.77,11.1-20.61,18.27-35.02,18.27
	c-14.57,0-27.32-7.17-35.1-18.27H258.37c-13.59,0-24.53-11.02-24.53-24.53c0-13.59,11.02-24.53,24.53-24.53h240.78
	c7.7-11.02,20.53-18.27,35.1-18.27c14.49,0,27.32,7.17,35.02,18.27h38.57c13.59,0,24.53,11.02,24.53,24.53
	C632.37,145.54,621.43,156.49,607.84,156.49L607.84,156.49z M607.84,264.57h-255.5c-7.77,11.02-20.61,18.27-35.1,18.27
	c-14.57,0-27.4-7.17-35.02-18.27h-23.85c-13.59,0-24.53-11.02-24.53-24.53s11.02-24.46,24.53-24.46h23.85
	c7.7-11.1,20.53-18.34,35.02-18.34s27.32,7.25,35.1,18.34h255.5c13.59,0,24.53,11.02,24.53,24.46
	C632.37,253.63,621.43,264.57,607.84,264.57L607.84,264.57z M1294.18,37H71.25C32.08,37,0,69.08,0,108.25v552.21
	c0,39.17,32.08,71.25,71.25,71.25h66.42V433.35c0-45.74,37.21-82.95,82.95-82.95h923.65c45.74,0,82.95,37.21,82.95,82.95v298.37
	h66.95c39.17,0,71.25-32.08,71.25-71.25V108.25C1365.44,69.08,1333.36,37,1294.18,37L1294.18,37z"/>
</svg>
