<?xml version="1.0" encoding="utf-8"?>
<!-- Generator: Adobe Illustrator 24.1.0, SVG Export Plug-In . SVG Version: 6.00 Build 0)  -->
<svg version="1.1" id="Layer_1" xmlns="http://www.w3.org/2000/svg" xmlns:xlink="http://www.w3.org/1999/xlink" x="0px" y="0px"
	 viewBox="0 0 300 300" style="enable-background:new 0 0 300 300;" xml:space="preserve">
<style type="text/css">
	.st0{fill:#F4B942;}
	.st1{fill:#4059AD;}
</style>
<path class="st0" d="M84.92,157.4v37.77c0,0.45,0.37,0.83,0.83,0.83h21.21h2.55h66.43h1.87h15.79c0.11,0,0.22-0.01,0.32-0.02V196
	h20.42c0.89,0,1.61-0.72,1.61-1.61v-36.21c0-2.53-1.55-4.71-3.76-5.62c-1.13-0.77-6.7-0.82-11.4-0.72v-0.04h-75.73v0.44l-36.37,0.09
	C86.5,152.98,84.92,155,84.92,157.4L84.92,157.4z"/>
<path class="st1" d="M88.15,156.7c0.19-0.58,0.66-1.02,1.21-1.26l3.06-0.01v9.05c0,1.72,1.4,3.12,3.11,3.12
	c1.72,0,3.12-1.39,3.12-3.12v-9.07l3.65-0.01v37.48H88.03v-35.49C88.03,157.14,88.08,156.9,88.15,156.7L88.15,156.7z M210.49,155.24
	c0.16,0.03,0.27,0.06,0.28,0.07l0,0v-0.01c0.08,0.05,0.15,0.1,0.23,0.13c0.53,0.22,1,0.6,1.32,1.08c0.33,0.48,0.52,1.04,0.52,1.67
	v34.7h-14.27v-37.87c1.01-0.03,2.07-0.06,3.22-0.08v9.55c0,1.72,1.39,3.12,3.11,3.12c1.72,0,3.12-1.39,3.12-3.12v-9.47
	c0.32,0.02,0.68,0.02,0.96,0.05C209.62,155.11,210.16,155.17,210.49,155.24L210.49,155.24z M177.2,192.88v-37.67h2.15h0.55v9.27
	c0,1.72,1.4,3.12,3.12,3.12c1.72,0,3.11-1.39,3.11-3.12v-9.27h2.56l0,0h3.64v37.67h-14.52H177.2L177.2,192.88z M161.15,167.59
	c1.72,0,3.12-1.39,3.12-3.12v-9.24l6.7-0.02v37.66h-17.38v-37.61l4.45-0.02v9.22C158.04,166.2,159.43,167.59,161.15,167.59
	L161.15,167.59z M139.28,167.59c1.72,0,3.11-1.39,3.11-3.12v-9.18l4.97-0.02v37.59h-15.83v-37.55l4.64-0.01v9.16
	C136.17,166.2,137.56,167.59,139.28,167.59L139.28,167.59z M108.54,192.88v-37.5l5.76-0.02v9.11c0,1.72,1.39,3.12,3.12,3.12
	c1.72,0,3.12-1.39,3.12-3.12v-9.13l4.77-0.01v37.54h-15.79H108.54L108.54,192.88z M238.29,103.22c-2-1.35-4.43-2.15-7.01-2.15H69.66
	c-1.72,0-3.38,0.36-4.88,1c-2.25,0.95-4.15,2.54-5.51,4.54c-1.35,2-2.15,4.42-2.14,7v72.98c0,1.72,0.35,3.37,0.99,4.88
	c0.96,2.25,2.55,4.15,4.54,5.5c1.99,1.36,4.42,2.15,7.01,2.15h16.09h0.47h20.74h2.55h66.43h1.87h15.79c0.06,0,0.11-0.03,0.18-0.03
	c0.05,0,0.1,0.03,0.15,0.03h20.42c0.11,0,0.21-0.06,0.32-0.06c0.11,0.02,0.21,0.06,0.32,0.06h16.3c1.72,0,3.37-0.36,4.87-0.99
	c2.25-0.96,4.16-2.55,5.51-4.55c1.35-1.99,2.15-4.42,2.15-7v-32.6c0-1.72-1.4-3.11-3.12-3.11c-1.72,0-3.11,1.39-3.11,3.11v32.6
	c0,0.87-0.18,1.69-0.5,2.43c-0.48,1.13-1.29,2.1-2.3,2.79c-1.02,0.69-2.21,1.08-3.51,1.08h-12.22v-34.7c0-1.9-0.6-3.71-1.6-5.17
	c-0.88-1.3-2.12-2.3-3.54-3l0.02-0.02c-0.24-0.16-0.45-0.28-0.66-0.36c-0.38-0.17-0.7-0.27-1.03-0.36
	c-0.57-0.14-1.12-0.23-1.73-0.31c-0.91-0.11-1.91-0.17-2.99-0.22c-1.08-0.03-2.23-0.05-3.41-0.05c-2.52,0-5.11,0.07-7.06,0.14
	c-1.97,0.08-3.3,0.15-3.32,0.15c-0.02,0-0.03,0.01-0.05,0.01c-0.03,0-0.06-0.02-0.1-0.02h-4.9h-12.75c-0.02,0-0.03,0.02-0.05,0.02
	l-87.21,0.21c-0.29,0-0.61,0.06-0.9,0.14c-1.74,0.53-3.22,1.59-4.28,3c-0.53,0.7-0.95,1.49-1.25,2.35c-0.29,0.85-0.44,1.76-0.44,2.7
	v35.49H69.66c-0.87,0-1.69-0.18-2.44-0.49c-1.13-0.48-2.1-1.29-2.78-2.3c-0.69-1.01-1.08-2.21-1.08-3.51V113.6
	c0-0.87,0.18-1.68,0.5-2.44c0.47-1.12,1.28-2.1,2.3-2.78c1.01-0.68,2.2-1.08,3.51-1.08h161.62c0.87,0,1.68,0.17,2.44,0.49
	c1.12,0.48,2.1,1.29,2.78,2.3c0.68,1.02,1.08,2.22,1.08,3.51v19.61c0,1.72,1.39,3.11,3.11,3.11c1.72,0,3.12-1.39,3.12-3.11V113.6
	c0-1.72-0.36-3.37-1-4.87C241.87,106.48,240.28,104.57,238.29,103.22L238.29,103.22z"/>
<path class="st1" d="M169.42,118.37v18.3c0,1.72,1.39,3.12,3.11,3.12c1.72,0,3.11-1.4,3.11-3.12v-18.3c0-1.72-1.39-3.12-3.11-3.12
	C170.81,115.25,169.42,116.65,169.42,118.37L169.42,118.37z"/>
<path class="st1" d="M179.79,118.37v18.3c0,1.72,1.39,3.12,3.12,3.12c1.72,0,3.12-1.4,3.12-3.12v-18.3c0-1.72-1.39-3.12-3.12-3.12
	C181.18,115.25,179.79,116.65,179.79,118.37L179.79,118.37z"/>
<path class="st1" d="M190.17,118.37v18.3c0,1.72,1.39,3.12,3.12,3.12c1.72,0,3.11-1.4,3.11-3.12v-18.3c0-1.72-1.39-3.12-3.11-3.12
	C191.56,115.25,190.17,116.65,190.17,118.37L190.17,118.37z"/>
<path class="st1" d="M200.55,118.37v18.3c0,1.72,1.39,3.12,3.11,3.12c1.72,0,3.11-1.4,3.11-3.12v-18.3c0-1.72-1.4-3.12-3.11-3.12
	C201.95,115.25,200.55,116.65,200.55,118.37L200.55,118.37z"/>
<path class="st1" d="M131,120.41c-0.21,0.5-0.57,0.94-1.02,1.24c-0.45,0.3-0.97,0.48-1.55,0.48c-0.4,0-0.76-0.08-1.09-0.22
	c-0.49-0.21-0.93-0.57-1.24-1.02c-0.3-0.45-0.47-0.97-0.47-1.56c0-0.39,0.08-0.75,0.22-1.08c0.2-0.5,0.57-0.94,1.01-1.23
	c0.45-0.31,0.97-0.49,1.57-0.49c0.39,0,0.74,0.08,1.08,0.23c0.49,0.21,0.93,0.57,1.23,1.01c0.31,0.45,0.48,0.97,0.48,1.56
	C131.22,119.72,131.14,120.09,131,120.41L131,120.41z M140.61,116.21h-3.8c-0.04-0.12-0.02-0.28-0.08-0.4
	c-0.68-1.62-1.82-2.99-3.26-3.97c-1.43-0.97-3.19-1.55-5.04-1.55c-1.25,0-2.44,0.25-3.52,0.71c-1.63,0.69-2.99,1.82-3.96,3.26
	c-0.4,0.59-0.68,1.26-0.93,1.93H93.39c-1.72,0-3.11,1.4-3.11,3.12c0,1.72,1.39,3.12,3.11,3.12h26.64c0.05,0.12,0.03,0.28,0.08,0.4
	c0.69,1.63,1.83,2.99,3.27,3.96c1.43,0.98,3.19,1.55,5.05,1.55c1.23,0,2.43-0.26,3.51-0.71c1.62-0.7,2.99-1.83,3.96-3.27
	c0.4-0.58,0.68-1.26,0.92-1.93h3.79c1.72,0,3.12-1.4,3.12-3.12C143.73,117.61,142.33,116.21,140.61,116.21L140.61,116.21z"/>
<path class="st1" d="M106.17,134.7c-0.21,0.5-0.57,0.94-1.01,1.24c-0.45,0.3-0.97,0.48-1.56,0.48c-0.4,0-0.75-0.08-1.08-0.23
	c-0.5-0.21-0.94-0.57-1.24-1.01c-0.3-0.44-0.48-0.97-0.48-1.56c0-0.4,0.08-0.75,0.23-1.08c0.21-0.5,0.57-0.94,1.01-1.24
	c0.44-0.3,0.97-0.48,1.56-0.48c0.4,0,0.75,0.08,1.08,0.23c0.5,0.21,0.94,0.57,1.24,1.01c0.3,0.45,0.48,0.97,0.48,1.56
	C106.4,134.01,106.32,134.37,106.17,134.7L106.17,134.7z M140.61,130.51H112c-0.05-0.13-0.03-0.28-0.08-0.4
	c-0.7-1.63-1.83-2.99-3.27-3.96c-1.44-0.97-3.19-1.55-5.05-1.55c-1.24,0-2.43,0.25-3.51,0.7c-1.63,0.7-2.99,1.83-3.96,3.27
	c-0.41,0.59-0.68,1.26-0.94,1.94h-1.8c-1.72,0-3.11,1.39-3.11,3.11c0,1.71,1.39,3.12,3.11,3.12h1.81c0.05,0.12,0.03,0.28,0.08,0.4
	c0.7,1.63,1.83,2.99,3.27,3.96c1.44,0.97,3.19,1.55,5.05,1.55c1.24,0,2.43-0.25,3.51-0.7c1.63-0.7,2.99-1.83,3.96-3.27
	c0.41-0.59,0.68-1.25,0.93-1.93h28.6c1.72,0,3.12-1.4,3.12-3.12C143.73,131.9,142.33,130.51,140.61,130.51L140.61,130.51z"/>
</svg>
