<?xml version="1.0" encoding="utf-8"?>
<!-- Generator: Adobe Illustrator 24.1.0, SVG Export Plug-In . SVG Version: 6.00 Build 0)  -->
<svg version="1.1" id="Layer_1" xmlns="http://www.w3.org/2000/svg" xmlns:xlink="http://www.w3.org/1999/xlink" x="0px" y="0px"
	 viewBox="0 0 300 300" style="enable-background:new 0 0 300 300;" xml:space="preserve">
<style type="text/css">
	.st0{fill:#6B9AC4;}
	.st1{fill:#4059AD;}
</style>
<path class="st0" d="M72.49,218.41h13.86V81.76c0-4.58,3.72-8.3,8.3-8.3h88.29c4.59,0,8.3,3.72,8.3,8.3v34.81h14.45h20.85
	c1.1,0,1.64-1.35,0.83-2.1L205.7,94.1V61.48c0-1.39-1.13-2.52-2.52-2.52H73.24c-1.39,0-2.52,1.13-2.52,2.52v155.17
	C70.72,217.62,71.52,218.41,72.49,218.41L72.49,218.41z"/>
<path class="st1" d="M199.63,142.94c0,2.35-1.91,4.25-4.25,4.25h-67.68c-2.35,0-4.25-1.91-4.25-4.25c0-2.35,1.9-4.25,4.25-4.25
	h67.68C197.72,138.68,199.63,140.59,199.63,142.94L199.63,142.94z M195.37,167.47h-67.68c-2.35,0-4.25-1.91-4.25-4.25
	c0-2.35,1.9-4.25,4.25-4.25h67.68c2.35,0,4.25,1.91,4.25,4.25C199.63,165.57,197.72,167.47,195.37,167.47L195.37,167.47z
	 M177.44,222.95c-6.25,0-11.15-3.32-11.15-7.56c0-4.24,4.89-7.56,11.15-7.56c1.57,0,3.09,0.22,4.49,0.63v-29.32
	c0-1.83,1.49-3.32,3.32-3.32c1.83,0,3.32,1.49,3.32,3.32v35.83c0.01,0.15,0.02,0.29,0.02,0.42
	C188.59,219.64,183.69,222.95,177.44,222.95L177.44,222.95z M163.17,204.81c-0.22,0-0.45-0.02-0.67-0.07
	c-2.01-0.42-3.94-1.42-5.75-3v12.54c0.01,0.15,0.02,0.29,0.02,0.42c0,4.24-4.89,7.56-11.15,7.56c-6.25,0-11.15-3.32-11.15-7.56
	c0-4.24,4.9-7.56,11.15-7.56c1.57,0,3.09,0.22,4.49,0.63v-29.32c0-1.83,1.49-3.32,3.32-3.32c1.83,0,3.32,1.49,3.32,3.32v1.48
	c1.2,2.48,4.03,6.89,7.09,7.51c1.79,0.37,2.95,2.13,2.58,3.92c-0.31,1.54-1.68,2.65-3.25,2.65c-0.22,0-0.45-0.02-0.67-0.07
	c-1.94-0.4-3.79-1.34-5.55-2.82c1.29,2.53,3.99,6.52,6.89,7.12c1.79,0.37,2.95,2.13,2.58,3.92
	C166.1,203.69,164.74,204.81,163.17,204.81L163.17,204.81z M184.16,122.44V81.76c0-0.67-0.54-1.22-1.22-1.22H94.65
	c-0.67,0-1.22,0.55-1.22,1.22V240c0,0.67,0.55,1.22,1.22,1.22h133.76c0.67,0,1.22-0.55,1.22-1.22V124.87c0-0.67-0.54-1.22-1.22-1.22
	h-43.04C184.71,123.66,184.16,123.11,184.16,122.44L184.16,122.44z"/>
</svg>
