<?xml version="1.0" encoding="utf-8"?>
<!-- Generator: Adobe Illustrator 24.1.0, SVG Export Plug-In . SVG Version: 6.00 Build 0)  -->
<svg version="1.1" id="Layer_1" xmlns="http://www.w3.org/2000/svg" xmlns:xlink="http://www.w3.org/1999/xlink" x="0px" y="0px"
	 viewBox="0 0 300 300" style="enable-background:new 0 0 300 300;" xml:space="preserve">
<style type="text/css">
	.st0{fill:#CDDDEB;}
	.st1{fill:#97D8C4;}
</style>
<path class="st0" d="M93.63,216.09V82c0-0.67,0.54-1.22,1.21-1.22h87.99c0.67,0,1.21,0.55,1.21,1.22v40.54
	c0,0.67,0.55,1.21,1.22,1.21h41.87v-9.16L205.51,94.3V61.78c0-1.39-1.13-2.51-2.51-2.51H73.51c-1.39,0-2.51,1.12-2.51,2.51v154.64
	c0,0.97,0.79,1.76,1.76,1.76h17.85L93.63,216.09L93.63,216.09z"/>
<path class="st1" d="M223.99,115.95v4.66h-36.8V81.99c0-0.59-0.12-1.17-0.34-1.69c-0.33-0.78-0.87-1.44-1.57-1.91
	c-0.69-0.47-1.55-0.75-2.44-0.75H94.85c-0.59,0-1.18,0.12-1.7,0.35c-0.78,0.33-1.44,0.88-1.91,1.57c-0.46,0.69-0.74,1.54-0.74,2.43
	v53.18c0,1.73,1.4,3.14,3.14,3.14c1.73,0,3.14-1.4,3.14-3.14V83.92h84.14v38.62c0,0.59,0.12,1.18,0.34,1.69
	c0.33,0.79,0.88,1.45,1.57,1.91c0.69,0.47,1.54,0.75,2.44,0.75h40.96v110.88H96.77v-81.68c0-1.73-1.4-3.13-3.14-3.13
	c-1.73,0-3.14,1.4-3.14,3.13v58.96l-3.93,0H74.13V62.41h128.24V94.3c0,0.86,0.36,1.7,0.99,2.29L223.99,115.95L223.99,115.95z
	 M70.02,220.48c0.78,0.53,1.73,0.84,2.74,0.84h13.81h3.93v18.37c0,0.59,0.12,1.17,0.34,1.69c0.33,0.78,0.88,1.44,1.57,1.91
	c0.69,0.47,1.54,0.75,2.44,0.75h133.3c0.59,0,1.17-0.12,1.69-0.35c0.79-0.33,1.45-0.88,1.91-1.58c0.47-0.69,0.74-1.54,0.74-2.43
	V124.96c0-0.59-0.12-1.17-0.34-1.69c-0.33-0.78-0.88-1.44-1.57-1.91c-0.09-0.06-0.22-0.05-0.32-0.1v-6.67c0-0.86-0.36-1.7-0.99-2.29
	l-20.62-19.36V61.78c0-0.77-0.16-1.52-0.44-2.2c-0.43-1.02-1.14-1.87-2.05-2.48c-0.9-0.61-2-0.97-3.16-0.97H73.51
	c-0.77,0-1.52,0.16-2.2,0.44c-1.02,0.43-1.87,1.14-2.48,2.05c-0.61,0.89-0.97,2-0.97,3.16v154.64c0,0.66,0.13,1.32,0.39,1.91
	C68.62,219.21,69.24,219.95,70.02,220.48L70.02,220.48z"/>
<path class="st1" d="M129.92,213.83c0.11-0.38,0.33-0.78,0.7-1.2c0.28-0.32,0.65-0.64,1.11-0.95c0.69-0.45,1.57-0.86,2.6-1.15
	c1.03-0.29,2.2-0.45,3.46-0.45c1.27,0,2.49,0.17,3.58,0.49c0.94,0.28,1.98,0.09,2.77-0.51l0.02-0.01c0.79-0.6,1.25-1.52,1.25-2.51
	v-29.2c0-0.03,0-0.04,0.01-0.06c0.01-0.02,0.04-0.06,0.07-0.08c0.03-0.02,0.05-0.02,0.09-0.03h0.02l0.01,0
	c0.01,0,0.05,0.03,0.08,0.09c0.03,0.05,0.05,0.12,0.05,0.19v1.36c0,0.23,0.02,0.47,0.07,0.69l0,0.01c0.05,0.22,0.13,0.47,0.24,0.68
	c0.35,0.73,0.8,1.55,1.34,2.42c0.82,1.3,1.83,2.7,3.08,3.94c0.63,0.62,1.32,1.2,2.11,1.7c0.79,0.5,1.69,0.92,2.72,1.13
	c0.02,0.01,0.04,0.01,0.05,0.02c0.02,0.01,0.05,0.04,0.06,0.07c0.02,0.03,0.02,0.06,0.02,0.08v0.04l-0.02,0.05
	c-0.01,0.02-0.04,0.05-0.07,0.07c-0.03,0.02-0.05,0.02-0.07,0.02l-0.04,0l0,0c-0.8-0.17-1.6-0.46-2.42-0.93
	c-0.55-0.31-1.21-0.49-1.85-0.49c-0.53,0-1.04,0.11-1.48,0.31c-0.66,0.29-1.2,0.74-1.6,1.32c-0.2,0.29-0.36,0.61-0.48,0.96
	c-0.11,0.35-0.18,0.74-0.18,1.14c0,0.36,0.06,0.74,0.17,1.09c0.11,0.35,0.27,0.69,0.47,0.99c0.8,1.2,1.76,2.43,2.93,3.51
	c0.59,0.54,1.22,1.05,1.95,1.49c0.73,0.44,1.54,0.8,2.46,1.01c0.1,0.02,0.18,0.07,0.21,0.1l0.01,0.01c0,0.02,0.01,0.05,0.01,0.07
	c0,0.04-0.01,0.05-0.01,0.07c-0.01,0.02-0.04,0.06-0.07,0.08c-0.04,0.03-0.06,0.03-0.09,0.03l-0.04-0.01
	c-1.09-0.22-2.17-0.69-3.3-1.49c-0.33-0.24-0.71-0.42-1.09-0.54c-0.38-0.12-0.78-0.18-1.17-0.18c-0.52,0-1.02,0.11-1.48,0.29
	c-0.69,0.28-1.29,0.75-1.74,1.38c-0.22,0.31-0.4,0.67-0.53,1.06c-0.12,0.38-0.19,0.8-0.19,1.21v10.86l0.01,0.25
	c0.01,0.07,0.01,0.13,0.01,0.17c0,0.22-0.03,0.44-0.09,0.65c-0.11,0.38-0.33,0.77-0.7,1.2c-0.28,0.31-0.65,0.64-1.11,0.94
	c-0.69,0.46-1.57,0.86-2.6,1.15c-1.03,0.29-2.2,0.45-3.47,0.45c-1.28,0-2.47-0.17-3.51-0.47c-0.78-0.22-1.48-0.51-2.07-0.84
	c-0.88-0.49-1.51-1.07-1.88-1.6c-0.18-0.27-0.31-0.52-0.39-0.76c-0.08-0.24-0.12-0.48-0.12-0.73
	C129.82,214.26,129.85,214.05,129.92,213.83L129.92,213.83z M125.92,220.5c0.68,0.77,1.47,1.44,2.34,2.01
	c1.3,0.87,2.78,1.52,4.39,1.96c1.6,0.45,3.33,0.68,5.14,0.68c1.84,0,3.59-0.24,5.22-0.7c1.22-0.35,2.36-0.81,3.42-1.4
	c1.58-0.88,2.95-2.03,3.97-3.48c0.51-0.72,0.92-1.52,1.21-2.38c0.29-0.86,0.44-1.78,0.44-2.71c0-0.14-0.01-0.28-0.02-0.42v-7.07
	c0.65,0.24,1.29,0.5,1.96,0.63c0.43,0.09,0.86,0.13,1.3,0.13c0.87,0,1.71-0.18,2.48-0.5c1.15-0.49,2.13-1.29,2.84-2.32
	c0.35-0.51,0.63-1.09,0.83-1.7c0.19-0.61,0.29-1.27,0.29-1.94c0-0.41-0.04-0.82-0.11-1.22v0c-0.12-0.67-0.35-1.3-0.67-1.87
	c-0.47-0.85-1.12-1.56-1.87-2.1c-0.16-0.11-0.36-0.14-0.52-0.23c0.55-0.34,1.15-0.6,1.57-1.08c0.71-0.81,1.24-1.82,1.47-2.94l0,0
	c0.09-0.43,0.13-0.87,0.13-1.3c0-1.5-0.53-2.92-1.43-4.04c-0.45-0.56-1-1.05-1.63-1.44c-0.63-0.39-1.33-0.68-2.09-0.83
	c-0.07-0.01-0.2-0.05-0.36-0.13c-0.29-0.14-0.7-0.43-1.14-0.83c-0.65-0.61-1.35-1.47-1.95-2.35c-0.47-0.69-0.8-1.33-1.11-1.92v-0.54
	c0-0.82-0.15-1.62-0.43-2.35c-0.42-1.1-1.12-2.07-2.04-2.82c-0.47-0.37-0.99-0.69-1.56-0.92c-0.57-0.23-1.19-0.39-1.82-0.44
	c-0.2-0.02-0.39-0.02-0.59-0.02c-0.88,0-1.73,0.18-2.51,0.51c-1.16,0.49-2.14,1.31-2.83,2.33c-0.69,1.02-1.11,2.28-1.1,3.6V204
	c-0.46-0.03-0.88-0.19-1.34-0.19c-1.84,0-3.59,0.24-5.22,0.7c-1.22,0.34-2.36,0.81-3.42,1.4c-1.58,0.88-2.95,2.03-3.97,3.48
	c-0.51,0.73-0.92,1.52-1.21,2.38c-0.29,0.86-0.44,1.78-0.44,2.71c0,0.83,0.12,1.65,0.35,2.43
	C124.29,218.26,125.01,219.47,125.92,220.5L125.92,220.5z"/>
<polygon class="st1" points="147.89,195.11 147.89,195.11 147.88,195.11 147.89,195.11 "/>
<path class="st1" d="M187.85,215.83c-0.11,0.38-0.33,0.78-0.7,1.2c-0.28,0.32-0.65,0.64-1.11,0.95c-0.69,0.45-1.57,0.86-2.6,1.15
	c-1.03,0.29-2.2,0.45-3.46,0.45c-1.28,0-2.47-0.17-3.51-0.46c-0.78-0.22-1.48-0.51-2.07-0.84c-0.89-0.49-1.51-1.07-1.88-1.6
	c-0.19-0.27-0.31-0.52-0.39-0.76c-0.08-0.24-0.12-0.48-0.12-0.73c0-0.22,0.03-0.44,0.09-0.65c0.11-0.38,0.32-0.78,0.7-1.2
	c0.28-0.31,0.65-0.64,1.11-0.94c0.69-0.46,1.57-0.86,2.6-1.15c1.03-0.29,2.2-0.45,3.47-0.45c1.28,0,2.5,0.17,3.59,0.5
	c0.95,0.28,1.98,0.09,2.77-0.5c0.79-0.59,1.26-1.53,1.26-2.51v-29.22c0-0.03,0-0.04,0.01-0.06c0.01-0.03,0.04-0.06,0.06-0.08
	c0.03-0.02,0.05-0.02,0.09-0.02c0.03,0,0.04,0,0.06,0.01c0.03,0.01,0.06,0.04,0.08,0.07c0.02,0.03,0.02,0.05,0.02,0.09v35.71
	l0.01,0.25c0,0.07,0.01,0.13,0.01,0.17C187.94,215.4,187.91,215.61,187.85,215.83L187.85,215.83z M194.2,179.05
	c0-0.88-0.18-1.74-0.51-2.51c-0.49-1.16-1.3-2.14-2.33-2.83c-1.02-0.69-2.28-1.11-3.6-1.11c-0.88,0-1.74,0.18-2.51,0.51
	c-1.16,0.49-2.14,1.31-2.83,2.33c-0.69,1.02-1.11,2.28-1.11,3.6v25.65c-0.46-0.03-0.88-0.19-1.34-0.19c-1.84,0-3.59,0.24-5.22,0.7
	c-1.22,0.35-2.37,0.81-3.42,1.4c-1.58,0.88-2.95,2.03-3.97,3.48c-0.51,0.72-0.92,1.52-1.21,2.38c-0.29,0.86-0.44,1.78-0.44,2.71
	c0,0.83,0.12,1.65,0.35,2.42c0.4,1.36,1.12,2.57,2.02,3.6c0.69,0.77,1.48,1.44,2.34,2.01c1.31,0.86,2.79,1.51,4.39,1.96
	c1.6,0.44,3.33,0.68,5.14,0.68c1.83,0,3.59-0.24,5.21-0.7c1.22-0.34,2.37-0.81,3.42-1.4c1.58-0.88,2.95-2.03,3.97-3.48
	c0.51-0.73,0.92-1.53,1.21-2.38c0.29-0.86,0.44-1.78,0.44-2.71c0-0.15-0.01-0.29-0.02-0.44V179.05L194.2,179.05z"/>
<path class="st1" d="M127.77,141.86h67.45c1.74,0,3.14-1.4,3.14-3.14c0-1.73-1.4-3.14-3.14-3.14h-67.45c-1.73,0-3.14,1.4-3.14,3.14
	C124.63,140.46,126.04,141.86,127.77,141.86L127.77,141.86z"/>
<path class="st1" d="M127.77,162.07h67.45c1.74,0,3.14-1.4,3.14-3.13c0-1.73-1.4-3.14-3.14-3.14h-67.45c-1.73,0-3.14,1.4-3.14,3.14
	C124.63,160.67,126.04,162.07,127.77,162.07L127.77,162.07z"/>
</svg>
