<?xml version="1.0" encoding="utf-8"?>
<!-- Generator: Adobe Illustrator 24.1.0, SVG Export Plug-In . SVG Version: 6.00 Build 0)  -->
<svg version="1.1" id="Layer_1" xmlns="http://www.w3.org/2000/svg" xmlns:xlink="http://www.w3.org/1999/xlink" x="0px" y="0px"
	 viewBox="0 0 672 768" style="enable-background:new 0 0 672 768;" xml:space="preserve">
<style type="text/css">
	.st0{fill:#CDDDEB;}
	.st1{fill:#97D8C4;}
</style>
<path class="st0" d="M104.83,653.35V105.67c0-2.74,2.21-4.98,4.94-4.98h359.39c2.74,0,4.94,2.25,4.94,4.98v165.58
	c0,2.74,2.25,4.94,4.98,4.94h171.02v-37.41L561.8,155.9V23.08c0-5.68-4.62-10.25-10.25-10.25H22.65c-5.68,0-10.25,4.57-10.25,10.25
	V654.7c0,3.96,3.23,7.19,7.19,7.19H92.5L104.83,653.35L104.83,653.35z"/>
<path class="st1" d="M637.28,244.33v19.03H486.97V105.62c0-2.41-0.49-4.78-1.39-6.9c-1.35-3.19-3.55-5.88-6.41-7.8
	c-2.82-1.92-6.33-3.06-9.97-3.06H109.81c-2.41,0-4.82,0.49-6.94,1.43c-3.19,1.35-5.88,3.59-7.8,6.41c-1.88,2.82-3.02,6.29-3.02,9.93
	v217.21c0,7.07,5.72,12.83,12.83,12.83c7.07,0,12.83-5.72,12.83-12.83V113.51h343.67v157.74c0,2.41,0.49,4.82,1.39,6.9
	c1.35,3.23,3.59,5.92,6.41,7.8c2.82,1.92,6.29,3.06,9.97,3.06h167.3V741.9H117.66V408.28c0-7.07-5.72-12.78-12.83-12.78
	c-7.07,0-12.83,5.72-12.83,12.78V649.1H75.95H25.18V25.65h523.79V155.9c0,3.51,1.47,6.94,4.04,9.35L637.28,244.33L637.28,244.33z
	 M8.4,671.28c3.19,2.16,7.07,3.43,11.19,3.43h56.41h16.05v75.03c0,2.41,0.49,4.78,1.39,6.9c1.35,3.19,3.59,5.88,6.41,7.8
	c2.82,1.92,6.29,3.06,9.97,3.06h544.46c2.41,0,4.78-0.49,6.9-1.43c3.23-1.35,5.92-3.59,7.8-6.45c1.92-2.82,3.02-6.29,3.02-9.93
	V281.13c0-2.41-0.49-4.78-1.39-6.9c-1.35-3.19-3.59-5.88-6.41-7.8c-0.37-0.25-0.9-0.2-1.31-0.41v-27.24c0-3.51-1.47-6.94-4.04-9.35
	l-84.22-79.08V23.08c0-3.15-0.65-6.21-1.8-8.99c-1.76-4.17-4.66-7.64-8.37-10.13C560.78,1.47,556.29,0,551.55,0H22.65
	c-3.15,0-6.21,0.65-8.99,1.8C9.5,3.55,6.03,6.45,3.54,10.17c-2.49,3.64-3.96,8.17-3.96,12.91V654.7c0,2.7,0.53,5.39,1.59,7.8
	C2.68,666.1,5.21,669.12,8.4,671.28L8.4,671.28z"/>
<path class="st1" d="M253.06,644.12c0.45-1.55,1.35-3.19,2.86-4.9c1.14-1.31,2.65-2.61,4.53-3.88c2.82-1.84,6.41-3.51,10.62-4.7
	c4.21-1.18,8.99-1.84,14.13-1.84c5.19,0,10.17,0.69,14.62,2c3.84,1.14,8.09,0.37,11.31-2.08l0.08-0.04
	c3.23-2.45,5.11-6.21,5.11-10.25V499.16c0-0.12,0-0.16,0.04-0.25c0.04-0.08,0.16-0.25,0.29-0.33c0.12-0.08,0.2-0.08,0.37-0.12h0.08
	h0.04c0.04,0,0.2,0.12,0.33,0.37c0.12,0.2,0.2,0.49,0.2,0.78v5.55c0,0.94,0.08,1.92,0.29,2.82v0.04c0.2,0.9,0.53,1.92,0.98,2.78
	c1.43,2.98,3.27,6.33,5.47,9.88c3.35,5.31,7.47,11.03,12.58,16.09c2.57,2.53,5.39,4.9,8.62,6.94c3.23,2.04,6.9,3.76,11.11,4.62
	c0.08,0.04,0.16,0.04,0.2,0.08c0.08,0.04,0.2,0.16,0.25,0.29c0.08,0.12,0.08,0.25,0.08,0.33v0.16l-0.08,0.2
	c-0.04,0.08-0.16,0.2-0.29,0.29c-0.12,0.08-0.2,0.08-0.29,0.08h-0.16l0,0c-3.27-0.69-6.54-1.88-9.88-3.8c-2.25-1.27-4.94-2-7.56-2
	c-2.16,0-4.25,0.45-6.04,1.27c-2.7,1.18-4.9,3.02-6.54,5.39c-0.82,1.18-1.47,2.49-1.96,3.92c-0.45,1.43-0.74,3.02-0.74,4.66
	c0,1.47,0.25,3.02,0.69,4.45c0.45,1.43,1.1,2.82,1.92,4.04c3.27,4.9,7.19,9.93,11.97,14.34c2.41,2.21,4.98,4.29,7.96,6.09
	c2.98,1.8,6.29,3.27,10.05,4.13c0.41,0.08,0.74,0.29,0.86,0.41l0.04,0.04c0,0.08,0.04,0.2,0.04,0.29c0,0.16-0.04,0.2-0.04,0.29
	c-0.04,0.08-0.16,0.25-0.29,0.33c-0.16,0.12-0.25,0.12-0.37,0.12l-0.16-0.04c-4.45-0.9-8.86-2.82-13.48-6.09
	c-1.35-0.98-2.9-1.72-4.45-2.21c-1.55-0.49-3.19-0.74-4.78-0.74c-2.12,0-4.17,0.45-6.04,1.18c-2.82,1.14-5.27,3.06-7.11,5.64
	c-0.9,1.27-1.63,2.74-2.16,4.33c-0.49,1.55-0.78,3.27-0.78,4.94v44.36l0.04,1.02c0.04,0.29,0.04,0.53,0.04,0.69
	c0,0.9-0.12,1.8-0.37,2.65c-0.45,1.55-1.35,3.15-2.86,4.9c-1.14,1.27-2.65,2.61-4.53,3.84c-2.82,1.88-6.41,3.51-10.62,4.7
	c-4.21,1.18-8.99,1.84-14.17,1.84c-5.23,0-10.09-0.69-14.34-1.92c-3.19-0.9-6.04-2.08-8.45-3.43c-3.59-2-6.17-4.37-7.68-6.54
	c-0.74-1.1-1.27-2.12-1.59-3.1c-0.33-0.98-0.49-1.96-0.49-2.98C252.65,645.88,252.77,645.02,253.06,644.12L253.06,644.12z
	 M236.72,671.36c2.78,3.15,6,5.88,9.56,8.21c5.31,3.55,11.35,6.21,17.93,8.01c6.54,1.84,13.6,2.78,20.99,2.78
	c7.52,0,14.66-0.98,21.32-2.86c4.98-1.43,9.64-3.31,13.97-5.72c6.45-3.59,12.05-8.29,16.22-14.21c2.08-2.94,3.76-6.21,4.94-9.72
	c1.18-3.51,1.8-7.27,1.8-11.07c0-0.57-0.04-1.14-0.08-1.72v-28.88c2.65,0.98,5.27,2.04,8.01,2.57c1.76,0.37,3.51,0.53,5.31,0.53
	c3.55,0,6.98-0.74,10.13-2.04c4.7-2,8.7-5.27,11.6-9.48c1.43-2.08,2.57-4.45,3.39-6.94c0.78-2.49,1.18-5.19,1.18-7.92
	c0-1.67-0.16-3.35-0.45-4.98l0,0c-0.49-2.74-1.43-5.31-2.74-7.64c-1.92-3.47-4.57-6.37-7.64-8.58c-0.65-0.45-1.47-0.57-2.12-0.94
	c2.25-1.39,4.7-2.45,6.41-4.41c2.9-3.31,5.06-7.43,6-12.01l0,0c0.37-1.76,0.53-3.55,0.53-5.31c0-6.13-2.16-11.93-5.84-16.5
	c-1.84-2.29-4.08-4.29-6.66-5.88c-2.57-1.59-5.43-2.78-8.54-3.39c-0.29-0.04-0.82-0.2-1.47-0.53c-1.18-0.57-2.86-1.76-4.66-3.39
	c-2.65-2.49-5.51-6-7.96-9.6c-1.92-2.82-3.27-5.43-4.53-7.84v-2.21c0-3.35-0.61-6.62-1.76-9.6c-1.72-4.49-4.57-8.45-8.33-11.52
	c-1.92-1.51-4.04-2.82-6.37-3.76c-2.33-0.94-4.86-1.59-7.43-1.8c-0.82-0.08-1.59-0.08-2.41-0.08c-3.59,0-7.07,0.74-10.25,2.08
	c-4.74,2-8.74,5.35-11.56,9.52c-2.82,4.17-4.53,9.31-4.49,14.7v104.73c-1.88-0.12-3.59-0.78-5.47-0.78
	c-7.52,0-14.66,0.98-21.32,2.86c-4.98,1.39-9.64,3.31-13.97,5.72c-6.45,3.59-12.05,8.29-16.22,14.21c-2.08,2.98-3.76,6.21-4.94,9.72
	c-1.18,3.51-1.8,7.27-1.8,11.07c0,3.39,0.49,6.74,1.43,9.93C230.06,662.22,233,667.16,236.72,671.36L236.72,671.36z"/>
<polygon class="st1" points="326.45,567.66 326.45,567.66 326.41,567.66 "/>
<path class="st1" d="M489.67,652.29c-0.45,1.55-1.35,3.19-2.86,4.9c-1.14,1.31-2.65,2.61-4.53,3.88c-2.82,1.84-6.41,3.51-10.62,4.7
	s-8.99,1.84-14.13,1.84c-5.23,0-10.09-0.69-14.34-1.88c-3.19-0.9-6.04-2.08-8.45-3.43c-3.64-2-6.17-4.37-7.68-6.54
	c-0.78-1.1-1.27-2.12-1.59-3.1c-0.33-0.98-0.49-1.96-0.49-2.98c0-0.9,0.12-1.8,0.37-2.65c0.45-1.55,1.31-3.19,2.86-4.9
	c1.14-1.27,2.65-2.61,4.53-3.84c2.82-1.88,6.41-3.51,10.62-4.7c4.21-1.18,8.99-1.84,14.17-1.84c5.23,0,10.21,0.69,14.66,2.04
	c3.88,1.14,8.09,0.37,11.31-2.04c3.23-2.41,5.15-6.25,5.15-10.25V502.14c0-0.12,0-0.16,0.04-0.25c0.04-0.12,0.16-0.25,0.25-0.33
	c0.12-0.08,0.2-0.08,0.37-0.08c0.12,0,0.16,0,0.25,0.04c0.12,0.04,0.25,0.16,0.33,0.29c0.08,0.12,0.08,0.2,0.08,0.37v145.86
	l0.04,1.02c0,0.29,0.04,0.53,0.04,0.69C490.04,650.53,489.91,651.39,489.67,652.29L489.67,652.29z M515.61,502.06
	c0-3.59-0.74-7.11-2.08-10.25c-2-4.74-5.31-8.74-9.52-11.56c-4.17-2.82-9.31-4.53-14.7-4.53c-3.59,0-7.11,0.74-10.25,2.08
	c-4.74,2-8.74,5.35-11.56,9.52c-2.82,4.17-4.53,9.31-4.53,14.7v104.77c-1.88-0.12-3.59-0.78-5.47-0.78
	c-7.52,0-14.66,0.98-21.32,2.86c-4.98,1.43-9.68,3.31-13.97,5.72c-6.45,3.59-12.05,8.29-16.22,14.21c-2.08,2.94-3.76,6.21-4.94,9.72
	c-1.18,3.51-1.8,7.27-1.8,11.07c0,3.39,0.49,6.74,1.43,9.88c1.63,5.55,4.57,10.5,8.25,14.7c2.82,3.15,6.05,5.88,9.56,8.21
	c5.35,3.51,11.4,6.17,17.93,8.01c6.54,1.8,13.6,2.78,20.99,2.78c7.47,0,14.66-0.98,21.28-2.86c4.98-1.39,9.68-3.31,13.97-5.72
	c6.45-3.59,12.05-8.29,16.22-14.21c2.08-2.98,3.76-6.25,4.94-9.72c1.18-3.51,1.8-7.27,1.8-11.07c0-0.61-0.04-1.18-0.08-1.8V502.06
	H515.61z"/>
<path class="st1" d="M244.27,350.16h275.5c7.11,0,12.83-5.72,12.83-12.83c0-7.07-5.72-12.83-12.83-12.83h-275.5
	c-7.07,0-12.83,5.72-12.83,12.83C231.45,344.44,237.21,350.16,244.27,350.16L244.27,350.16z"/>
<path class="st1" d="M244.27,432.71h275.5c7.11,0,12.83-5.72,12.83-12.78c0-7.07-5.72-12.83-12.83-12.83h-275.5
	c-7.07,0-12.83,5.72-12.83,12.83C231.45,426.99,237.21,432.71,244.27,432.71L244.27,432.71z"/>
</svg>
